<!-- <?xml version="1.0" encoding="utf-8"?>
<svg width="1500px" height="1500px" viewBox="0 0 24 24" fill="none" xmlns="http://www.w3.org/2000/svg">
<g id="Iconly/Curved/Password">
<g id="Password">
<path id="Stroke 1" fill-rule="evenodd" clip-rule="evenodd" d="M10.6887 11.9999C10.6887 13.0229 9.85974 13.8519 8.83674 13.8519C7.81374 13.8519 6.98474 13.0229 6.98474 11.9999C6.98474 10.9769 7.81374 10.1479 8.83674 10.1479H8.83974C9.86174 10.1489 10.6887 10.9779 10.6887 11.9999Z" stroke="#ddd" stroke-width="1.5" stroke-linecap="round" stroke-linejoin="round"/>
<path id="Stroke 3" d="M10.6918 12H17.0098V13.852" stroke="#ddd" stroke-width="1.5" stroke-linecap="round" stroke-linejoin="round"/>
<path id="Stroke 5" d="M14.182 13.852V12" stroke="#ddd" stroke-width="1.5" stroke-linecap="round" stroke-linejoin="round"/>
<path id="Stroke 7" fill-rule="evenodd" clip-rule="evenodd" d="M2.74988 12C2.74988 5.063 5.06288 2.75 11.9999 2.75C18.9369 2.75 21.2499 5.063 21.2499 12C21.2499 18.937 18.9369 21.25 11.9999 21.25C5.06288 21.25 2.74988 18.937 2.74988 12Z" stroke="#ddd" stroke-width="1.5" stroke-linecap="round" stroke-linejoin="round"/>
</g>
</g>
</svg> -->

<svg width="1254" height="1250" viewBox="0 0 1254 1250" fill="none" xmlns="http://www.w3.org/2000/svg">
<path d="M0 625C0 305.779 258.779 47 578 47H676C995.221 47 1254 305.779 1254 625V625C1254 944.221 995.221 1203 676 1203H578C258.779 1203 0 944.221 0 625V625Z" fill="#1A1A1A"/>
<path fill-rule="evenodd" clip-rule="evenodd" d="M429.296 556.119C391.247 556.119 360.421 586.945 360.421 624.994C360.421 663.043 391.247 693.869 429.296 693.869C467.344 693.869 498.169 663.044 498.169 624.994C498.169 586.955 467.413 556.167 429.458 556.119H429.296ZM266.671 624.994C266.671 535.168 339.47 462.369 429.296 462.369L429.53 462.369C519.316 462.457 591.919 535.289 591.919 624.994C591.919 714.818 519.123 787.619 429.296 787.619C339.47 787.619 266.671 714.82 266.671 624.994Z" fill="#DDDDDD"/>
<path fill-rule="evenodd" clip-rule="evenodd" d="M498.362 625C498.362 599.112 519.349 578.125 545.237 578.125H940.112C966.001 578.125 986.987 599.112 986.987 625V740.75C986.987 766.638 966.001 787.625 940.112 787.625C914.224 787.625 893.237 766.638 893.237 740.75V671.875H545.237C519.349 671.875 498.362 650.888 498.362 625Z" fill="#DDDDDD"/>
<path fill-rule="evenodd" clip-rule="evenodd" d="M763.375 578.125C789.263 578.125 810.25 599.112 810.25 625V740.75C810.25 766.638 789.263 787.625 763.375 787.625C737.487 787.625 716.5 766.638 716.5 740.75V625C716.5 599.112 737.487 578.125 763.375 578.125Z" fill="#DDDDDD"/>
<path fill-rule="evenodd" clip-rule="evenodd" d="M208.49 206.497C132.054 282.933 95.7425 410.819 95.7425 625C95.7425 839.181 132.054 967.067 208.49 1043.5C284.926 1119.94 412.812 1156.25 626.994 1156.25C841.175 1156.25 969.061 1119.94 1045.5 1043.5C1121.93 967.067 1158.24 839.181 1158.24 625C1158.24 410.819 1121.93 282.933 1045.5 206.497C969.061 130.061 841.175 93.75 626.994 93.75C412.812 93.75 284.926 130.061 208.49 206.497ZM142.199 140.206C246.435 35.9698 407.612 0 626.994 0C846.375 0 1007.55 35.9699 1111.79 140.206C1216.02 244.442 1251.99 405.619 1251.99 625C1251.99 844.381 1216.02 1005.56 1111.79 1109.79C1007.55 1214.03 846.375 1250 626.994 1250C407.612 1250 246.435 1214.03 142.199 1109.79C37.9623 1005.56 1.99249 844.381 1.99249 625C1.99249 405.619 37.9623 244.442 142.199 140.206Z" fill="#DDDDDD"/>
</svg>
